<svg width="120" height="40" viewBox="0 0 120 40" fill="none" xmlns="http://www.w3.org/2000/svg">
<rect width="120" height="40" rx="7.08333" fill="#0E0E0E"/>
<g clip-path="url(#clip0_3126_32780)">
<path d="M17.389 11.159C17.2081 11.295 17.0822 11.5045 17.082 11.7461V28.2498C17.082 28.4949 17.208 28.7027 17.3904 28.8397L26.6438 20L17.389 11.159Z" fill="#29B6F6"/>
<path d="M17.389 11.159C17.2081 11.295 17.0822 11.5045 17.082 11.7461V28.2498C17.082 28.4949 17.208 28.7027 17.3904 28.8397L26.6438 20L17.389 11.159Z" fill="url(#paint0_linear_3126_32780)"/>
<path d="M29.4958 17.2771C25.7031 15.1705 20.9918 12.5896 18.1812 11.086C17.907 10.9398 17.6082 10.9954 17.3906 11.159L26.6455 20L29.4958 17.2771Z" fill="#00E676"/>
<path d="M29.4958 17.2771C25.7031 15.1705 20.9918 12.5896 18.1812 11.086C17.907 10.9398 17.6082 10.9954 17.3906 11.159L26.6455 20L29.4958 17.2771Z" fill="url(#paint1_linear_3126_32780)"/>
<path d="M17.3906 28.8397C17.516 28.9339 17.6639 29 17.8323 29C17.9509 29 18.0677 28.9696 18.1794 28.9099C20.9897 27.4066 25.6996 24.8266 29.4918 22.7204L26.6441 20L17.3906 28.8397Z" fill="#F44336"/>
<path d="M17.3906 28.8397C17.516 28.9339 17.6639 29 17.8323 29C17.9509 29 18.0677 28.9696 18.1794 28.9099C20.9897 27.4066 25.6996 24.8266 29.4918 22.7204L26.6441 20L17.3906 28.8397Z" fill="url(#paint2_linear_3126_32780)"/>
<path d="M33.2011 19.3514C32.1917 18.7799 30.9048 18.0603 29.4948 17.2771L26.6445 20L29.4922 22.7204C30.9033 21.9367 32.191 21.2166 33.2011 20.6448C33.4366 20.5115 33.5827 20.2639 33.5827 19.9979C33.5827 19.732 33.4366 19.4844 33.2011 19.3514Z" fill="#FFEA00"/>
<path d="M33.2011 19.3514C32.1917 18.7799 30.9048 18.0603 29.4948 17.2771L26.6445 20L29.4922 22.7204C30.9033 21.9367 32.191 21.2166 33.2011 20.6448C33.4366 20.5115 33.5827 20.2639 33.5827 19.9979C33.5827 19.732 33.4366 19.4844 33.2011 19.3514Z" fill="url(#paint3_linear_3126_32780)"/>
<path opacity="0.2" d="M18.1242 11.2735C22.0085 13.3361 29.5049 17.4302 33.2575 19.5389C33.3945 19.6157 33.4966 19.733 33.5625 19.8678C33.5231 19.6537 33.3947 19.4621 33.1986 19.3514C29.4739 17.2427 22.0332 13.1486 18.1777 11.086C17.7167 10.8401 17.183 11.1555 17.0977 11.6205C17.2737 11.2656 17.7258 11.0626 18.1242 11.2735Z" fill="white"/>
<path opacity="0.1" d="M18.1242 28.7265C22.0085 26.6639 29.5049 22.5698 33.2575 20.4611C33.3945 20.3843 33.4966 20.267 33.5625 20.1322C33.5231 20.3463 33.3947 20.5379 33.1986 20.6486C29.4739 22.7573 22.0332 26.8514 18.1777 28.914C17.7167 29.1599 17.183 28.8445 17.0977 28.3795C17.2737 28.7344 17.7258 28.9374 18.1242 28.7265Z" fill="black"/>
<path d="M33.2004 19.3507C32.191 18.7791 20.9901 12.5883 18.1796 11.0846C17.9054 10.9384 17.6066 10.994 17.389 11.1576C17.2081 11.2936 17.0822 11.5031 17.082 11.7447V28.2498C17.082 28.4949 17.208 28.7027 17.3904 28.8397C17.5157 28.9338 17.6636 29 17.832 29C17.9507 29 18.0675 28.9696 18.1792 28.9099C20.9894 27.4065 32.1903 21.216 33.2004 20.6441C33.4359 20.5108 33.582 20.2632 33.582 19.9972C33.582 19.7313 33.4359 19.4836 33.2004 19.3507Z" fill="url(#paint4_linear_3126_32780)"/>
</g>
<path d="M40.78 17V9.95H43.34C44.1467 9.95 44.8267 10.09 45.38 10.37C45.94 10.6433 46.3633 11.0433 46.65 11.57C46.9367 12.09 47.08 12.7233 47.08 13.47C47.08 14.21 46.9367 14.8433 46.65 15.37C46.3633 15.8967 45.94 16.3 45.38 16.58C44.8267 16.86 44.1467 17 43.34 17H40.78ZM42.07 15.93H43.26C44.1133 15.93 44.7467 15.7267 45.16 15.32C45.5733 14.9133 45.78 14.2967 45.78 13.47C45.78 12.6367 45.5733 12.02 45.16 11.62C44.7467 11.2133 44.1133 11.01 43.26 11.01H42.07V15.93ZM50.3272 17.1C49.8072 17.1 49.3572 16.9933 48.9772 16.78C48.5972 16.5667 48.3005 16.2633 48.0872 15.87C47.8805 15.4767 47.7772 15.01 47.7772 14.47C47.7772 13.93 47.8805 13.4667 48.0872 13.08C48.3005 12.6867 48.5972 12.3833 48.9772 12.17C49.3572 11.9567 49.8072 11.85 50.3272 11.85C50.8472 11.85 51.2972 11.9567 51.6772 12.17C52.0639 12.3833 52.3605 12.6867 52.5672 13.08C52.7805 13.4667 52.8872 13.93 52.8872 14.47C52.8872 15.01 52.7805 15.4767 52.5672 15.87C52.3605 16.2633 52.0639 16.5667 51.6772 16.78C51.2972 16.9933 50.8472 17.1 50.3272 17.1ZM50.3272 16.14C50.7205 16.14 51.0339 16.0033 51.2672 15.73C51.5005 15.45 51.6172 15.03 51.6172 14.47C51.6172 13.91 51.5005 13.4933 51.2672 13.22C51.0339 12.9467 50.7205 12.81 50.3272 12.81C49.9339 12.81 49.6205 12.9467 49.3872 13.22C49.1539 13.4933 49.0372 13.91 49.0372 14.47C49.0372 15.03 49.1539 15.45 49.3872 15.73C49.6205 16.0033 49.9339 16.14 50.3272 16.14ZM55.0175 17L53.0475 11.95H54.3375L55.7575 15.88H55.4975L56.9375 11.95H57.8275L59.2575 15.88H59.0275L60.4375 11.95H61.6575L59.6875 17H58.5875L57.0775 12.98H57.6075L56.1275 17H55.0175ZM62.1956 17V13.21C62.1956 13.0033 62.189 12.7933 62.1756 12.58C62.1623 12.3667 62.1423 12.1567 62.1156 11.95H63.3256L63.4256 12.95H63.3056C63.4656 12.5967 63.7023 12.3267 64.0156 12.14C64.329 11.9467 64.6923 11.85 65.1056 11.85C65.699 11.85 66.1456 12.0167 66.4456 12.35C66.7456 12.6833 66.8956 13.2033 66.8956 13.91V17H65.6456V13.97C65.6456 13.5633 65.5656 13.2733 65.4056 13.1C65.2523 12.92 65.019 12.83 64.7056 12.83C64.319 12.83 64.0123 12.95 63.7856 13.19C63.559 13.43 63.4456 13.75 63.4456 14.15V17H62.1956ZM67.971 17V9.64H69.221V17H67.971ZM72.6084 17.1C72.0884 17.1 71.6384 16.9933 71.2584 16.78C70.8784 16.5667 70.5818 16.2633 70.3684 15.87C70.1618 15.4767 70.0584 15.01 70.0584 14.47C70.0584 13.93 70.1618 13.4667 70.3684 13.08C70.5818 12.6867 70.8784 12.3833 71.2584 12.17C71.6384 11.9567 72.0884 11.85 72.6084 11.85C73.1284 11.85 73.5784 11.9567 73.9584 12.17C74.3451 12.3833 74.6418 12.6867 74.8484 13.08C75.0618 13.4667 75.1684 13.93 75.1684 14.47C75.1684 15.01 75.0618 15.4767 74.8484 15.87C74.6418 16.2633 74.3451 16.5667 73.9584 16.78C73.5784 16.9933 73.1284 17.1 72.6084 17.1ZM72.6084 16.14C73.0018 16.14 73.3151 16.0033 73.5484 15.73C73.7818 15.45 73.8984 15.03 73.8984 14.47C73.8984 13.91 73.7818 13.4933 73.5484 13.22C73.3151 12.9467 73.0018 12.81 72.6084 12.81C72.2151 12.81 71.9018 12.9467 71.6684 13.22C71.4351 13.4933 71.3184 13.91 71.3184 14.47C71.3184 15.03 71.4351 15.45 71.6684 15.73C71.9018 16.0033 72.2151 16.14 72.6084 16.14ZM77.9464 17.1C77.5064 17.1 77.1197 16.9967 76.7864 16.79C76.4531 16.5767 76.1931 16.2733 76.0064 15.88C75.8197 15.4867 75.7264 15.0167 75.7264 14.47C75.7264 13.9233 75.8197 13.4567 76.0064 13.07C76.1931 12.6767 76.4531 12.3767 76.7864 12.17C77.1197 11.9567 77.5064 11.85 77.9464 11.85C78.3731 11.85 78.7464 11.9567 79.0664 12.17C79.3931 12.3767 79.6097 12.6567 79.7164 13.01H79.6064L79.7164 11.95H80.9164C80.8964 12.1567 80.8764 12.3667 80.8564 12.58C80.8431 12.7933 80.8364 13.0033 80.8364 13.21V17H79.5964L79.5864 15.96H79.7064C79.5997 16.3067 79.3831 16.5833 79.0564 16.79C78.7297 16.9967 78.3597 17.1 77.9464 17.1ZM78.2964 16.14C78.6897 16.14 79.0064 16.0033 79.2464 15.73C79.4864 15.45 79.6064 15.03 79.6064 14.47C79.6064 13.91 79.4864 13.4933 79.2464 13.22C79.0064 12.9467 78.6897 12.81 78.2964 12.81C77.9031 12.81 77.5864 12.9467 77.3464 13.22C77.1064 13.4933 76.9864 13.91 76.9864 14.47C76.9864 15.03 77.1031 15.45 77.3364 15.73C77.5764 16.0033 77.8964 16.14 78.2964 16.14ZM83.9076 17.1C83.4676 17.1 83.0776 16.9967 82.7376 16.79C82.4042 16.5767 82.1442 16.2733 81.9576 15.88C81.7709 15.4867 81.6776 15.0167 81.6776 14.47C81.6776 13.9233 81.7709 13.4567 81.9576 13.07C82.1442 12.6767 82.4042 12.3767 82.7376 12.17C83.0776 11.9567 83.4676 11.85 83.9076 11.85C84.3276 11.85 84.6976 11.9533 85.0176 12.16C85.3442 12.36 85.5609 12.6333 85.6676 12.98H85.5376V9.64H86.7876V17H85.5576V15.93H85.6776C85.5709 16.29 85.3542 16.5767 85.0276 16.79C84.7076 16.9967 84.3342 17.1 83.9076 17.1ZM84.2576 16.14C84.6509 16.14 84.9676 16.0033 85.2076 15.73C85.4476 15.45 85.5676 15.03 85.5676 14.47C85.5676 13.91 85.4476 13.4933 85.2076 13.22C84.9676 12.9467 84.6509 12.81 84.2576 12.81C83.8642 12.81 83.5442 12.9467 83.2976 13.22C83.0576 13.4933 82.9376 13.91 82.9376 14.47C82.9376 15.03 83.0576 15.45 83.2976 15.73C83.5442 16.0033 83.8642 16.14 84.2576 16.14ZM92.6729 17.1C92.1529 17.1 91.7029 16.9933 91.3229 16.78C90.9429 16.5667 90.6462 16.2633 90.4329 15.87C90.2262 15.4767 90.1229 15.01 90.1229 14.47C90.1229 13.93 90.2262 13.4667 90.4329 13.08C90.6462 12.6867 90.9429 12.3833 91.3229 12.17C91.7029 11.9567 92.1529 11.85 92.6729 11.85C93.1929 11.85 93.6429 11.9567 94.0229 12.17C94.4096 12.3833 94.7062 12.6867 94.9129 13.08C95.1262 13.4667 95.2329 13.93 95.2329 14.47C95.2329 15.01 95.1262 15.4767 94.9129 15.87C94.7062 16.2633 94.4096 16.5667 94.0229 16.78C93.6429 16.9933 93.1929 17.1 92.6729 17.1ZM92.6729 16.14C93.0662 16.14 93.3796 16.0033 93.6129 15.73C93.8462 15.45 93.9629 15.03 93.9629 14.47C93.9629 13.91 93.8462 13.4933 93.6129 13.22C93.3796 12.9467 93.0662 12.81 92.6729 12.81C92.2796 12.81 91.9662 12.9467 91.7329 13.22C91.4996 13.4933 91.3829 13.91 91.3829 14.47C91.3829 15.03 91.4996 15.45 91.7329 15.73C91.9662 16.0033 92.2796 16.14 92.6729 16.14ZM96.0609 17V13.21C96.0609 13.0033 96.0542 12.7933 96.0409 12.58C96.0275 12.3667 96.0075 12.1567 95.9809 11.95H97.1909L97.2909 12.95H97.1709C97.3309 12.5967 97.5675 12.3267 97.8809 12.14C98.1942 11.9467 98.5575 11.85 98.9709 11.85C99.5642 11.85 100.011 12.0167 100.311 12.35C100.611 12.6833 100.761 13.2033 100.761 13.91V17H99.5109V13.97C99.5109 13.5633 99.4309 13.2733 99.2709 13.1C99.1175 12.92 98.8842 12.83 98.5709 12.83C98.1842 12.83 97.8775 12.95 97.6509 13.19C97.4242 13.43 97.3109 13.75 97.3109 14.15V17H96.0609ZM40.78 30V22.95H43.91C44.6833 22.95 45.2733 23.1367 45.68 23.51C46.0867 23.8833 46.29 24.3967 46.29 25.05C46.29 25.6967 46.0867 26.21 45.68 26.59C45.2733 26.97 44.6833 27.16 43.91 27.16H42.07V30H40.78ZM42.07 26.14H43.76C44.1867 26.14 44.5067 26.0467 44.72 25.86C44.9333 25.6667 45.04 25.3967 45.04 25.05C45.04 24.7033 44.9333 24.4367 44.72 24.25C44.5067 24.0567 44.1867 23.96 43.76 23.96H42.07V26.14ZM47.0902 30V22.64H48.3402V30H47.0902ZM51.3976 30.1C50.9576 30.1 50.5709 29.9967 50.2376 29.79C49.9042 29.5767 49.6442 29.2733 49.4576 28.88C49.2709 28.4867 49.1776 28.0167 49.1776 27.47C49.1776 26.9233 49.2709 26.4567 49.4576 26.07C49.6442 25.6767 49.9042 25.3767 50.2376 25.17C50.5709 24.9567 50.9576 24.85 51.3976 24.85C51.8242 24.85 52.1976 24.9567 52.5176 25.17C52.8442 25.3767 53.0609 25.6567 53.1676 26.01H53.0576L53.1676 24.95H54.3676C54.3476 25.1567 54.3276 25.3667 54.3076 25.58C54.2942 25.7933 54.2876 26.0033 54.2876 26.21V30H53.0476L53.0376 28.96H53.1576C53.0509 29.3067 52.8342 29.5833 52.5076 29.79C52.1809 29.9967 51.8109 30.1 51.3976 30.1ZM51.7476 29.14C52.1409 29.14 52.4576 29.0033 52.6976 28.73C52.9376 28.45 53.0576 28.03 53.0576 27.47C53.0576 26.91 52.9376 26.4933 52.6976 26.22C52.4576 25.9467 52.1409 25.81 51.7476 25.81C51.3542 25.81 51.0376 25.9467 50.7976 26.22C50.5576 26.4933 50.4376 26.91 50.4376 27.47C50.4376 28.03 50.5542 28.45 50.7876 28.73C51.0276 29.0033 51.3476 29.14 51.7476 29.14ZM55.2499 32.27L54.9599 31.28C55.2733 31.2133 55.5366 31.1367 55.7499 31.05C55.9633 30.9633 56.1399 30.85 56.2799 30.71C56.4199 30.57 56.5366 30.39 56.6299 30.17L56.8799 29.58L56.8499 30.07L54.6499 24.95H55.9799L57.5599 28.89H57.2699L58.8599 24.95H60.1199L57.8199 30.28C57.6666 30.64 57.4999 30.9367 57.3199 31.17C57.1399 31.41 56.9466 31.6 56.7399 31.74C56.5333 31.8867 56.3066 32 56.0599 32.08C55.8133 32.16 55.5433 32.2233 55.2499 32.27ZM64.8238 30.1C64.3904 30.1 63.9904 30.05 63.6238 29.95C63.2638 29.8433 62.9604 29.6967 62.7138 29.51L63.0638 28.67C63.3171 28.8433 63.5971 28.9767 63.9038 29.07C64.2104 29.1633 64.5204 29.21 64.8338 29.21C65.1671 29.21 65.4138 29.1533 65.5738 29.04C65.7404 28.9267 65.8238 28.7733 65.8238 28.58C65.8238 28.4267 65.7704 28.3067 65.6638 28.22C65.5638 28.1267 65.4004 28.0567 65.1738 28.01L64.1738 27.82C63.7471 27.7267 63.4204 27.5667 63.1938 27.34C62.9738 27.1133 62.8638 26.8167 62.8638 26.45C62.8638 26.1367 62.9471 25.86 63.1138 25.62C63.2871 25.38 63.5304 25.1933 63.8438 25.06C64.1638 24.92 64.5371 24.85 64.9638 24.85C65.3371 24.85 65.6871 24.9 66.0138 25C66.3471 25.1 66.6271 25.25 66.8538 25.45L66.4938 26.26C66.2871 26.0933 66.0504 25.9633 65.7838 25.87C65.5171 25.7767 65.2571 25.73 65.0038 25.73C64.6571 25.73 64.4038 25.7933 64.2438 25.92C64.0838 26.04 64.0038 26.1967 64.0038 26.39C64.0038 26.5367 64.0504 26.66 64.1438 26.76C64.2438 26.8533 64.3971 26.9233 64.6038 26.97L65.6038 27.16C66.0504 27.2467 66.3871 27.4 66.6138 27.62C66.8471 27.8333 66.9638 28.1267 66.9638 28.5C66.9638 28.8333 66.8738 29.12 66.6938 29.36C66.5138 29.6 66.2638 29.7833 65.9438 29.91C65.6238 30.0367 65.2504 30.1 64.8238 30.1ZM69.8947 30.1C69.2947 30.1 68.8414 29.9433 68.5347 29.63C68.228 29.3167 68.0747 28.8467 68.0747 28.22V25.89H67.1047V24.95H68.0747V23.66L69.3247 23.34V24.95H70.6747V25.89H69.3247V28.14C69.3247 28.4867 69.3914 28.73 69.5247 28.87C69.658 29.01 69.8414 29.08 70.0747 29.08C70.2014 29.08 70.308 29.07 70.3947 29.05C70.488 29.03 70.578 29.0033 70.6647 28.97V29.96C70.5514 30.0067 70.4247 30.04 70.2847 30.06C70.1514 30.0867 70.0214 30.1 69.8947 30.1ZM73.5049 30.1C72.9849 30.1 72.5349 29.9933 72.1549 29.78C71.7749 29.5667 71.4783 29.2633 71.2649 28.87C71.0583 28.4767 70.9549 28.01 70.9549 27.47C70.9549 26.93 71.0583 26.4667 71.2649 26.08C71.4783 25.6867 71.7749 25.3833 72.1549 25.17C72.5349 24.9567 72.9849 24.85 73.5049 24.85C74.0249 24.85 74.4749 24.9567 74.8549 25.17C75.2416 25.3833 75.5383 25.6867 75.7449 26.08C75.9583 26.4667 76.0649 26.93 76.0649 27.47C76.0649 28.01 75.9583 28.4767 75.7449 28.87C75.5383 29.2633 75.2416 29.5667 74.8549 29.78C74.4749 29.9933 74.0249 30.1 73.5049 30.1ZM73.5049 29.14C73.8983 29.14 74.2116 29.0033 74.4449 28.73C74.6783 28.45 74.7949 28.03 74.7949 27.47C74.7949 26.91 74.6783 26.4933 74.4449 26.22C74.2116 25.9467 73.8983 25.81 73.5049 25.81C73.1116 25.81 72.7983 25.9467 72.5649 26.22C72.3316 26.4933 72.2149 26.91 72.2149 27.47C72.2149 28.03 72.3316 28.45 72.5649 28.73C72.7983 29.0033 73.1116 29.14 73.5049 29.14ZM76.8829 30V26.24C76.8829 26.0267 76.8762 25.81 76.8629 25.59C76.8562 25.37 76.8396 25.1567 76.8129 24.95H78.0229L78.1629 26.33H77.9629C78.0296 25.9967 78.1396 25.72 78.2929 25.5C78.4529 25.28 78.6462 25.1167 78.8729 25.01C79.0996 24.9033 79.3462 24.85 79.6129 24.85C79.7329 24.85 79.8296 24.8567 79.9029 24.87C79.9762 24.8767 80.0496 24.8933 80.1229 24.92L80.1129 26.02C79.9862 25.9667 79.8762 25.9333 79.7829 25.92C79.6962 25.9067 79.5862 25.9 79.4529 25.9C79.1662 25.9 78.9229 25.96 78.7229 26.08C78.5296 26.2 78.3829 26.3667 78.2829 26.58C78.1896 26.7933 78.1429 27.0367 78.1429 27.31V30H76.8829ZM82.9305 30.1C82.0839 30.1 81.4205 29.8667 80.9405 29.4C80.4605 28.9333 80.2205 28.2933 80.2205 27.48C80.2205 26.9533 80.3239 26.4933 80.5305 26.1C80.7372 25.7067 81.0239 25.4 81.3905 25.18C81.7639 24.96 82.1972 24.85 82.6905 24.85C83.1772 24.85 83.5839 24.9533 83.9105 25.16C84.2372 25.3667 84.4839 25.6567 84.6505 26.03C84.8239 26.4033 84.9105 26.84 84.9105 27.34V27.67H81.2305V27.01H84.0205L83.8505 27.15C83.8505 26.6833 83.7505 26.3267 83.5505 26.08C83.3572 25.8333 83.0739 25.71 82.7005 25.71C82.2872 25.71 81.9672 25.8567 81.7405 26.15C81.5205 26.4433 81.4105 26.8533 81.4105 27.38V27.51C81.4105 28.0567 81.5439 28.4667 81.8105 28.74C82.0839 29.0067 82.4672 29.14 82.9605 29.14C83.2472 29.14 83.5139 29.1033 83.7605 29.03C84.0139 28.95 84.2539 28.8233 84.4805 28.65L84.8505 29.49C84.6105 29.6833 84.3239 29.8333 83.9905 29.94C83.6572 30.0467 83.3039 30.1 82.9305 30.1Z" fill="white"/>
<defs>
<linearGradient id="paint0_linear_3126_32780" x1="21.8629" y1="12.5696" x2="21.8629" y2="24.5024" gradientUnits="userSpaceOnUse">
<stop stop-color="#00B8D4" stop-opacity="0"/>
<stop offset="1" stop-color="white" stop-opacity="0.3"/>
</linearGradient>
<linearGradient id="paint1_linear_3126_32780" x1="16.6088" y1="12.8357" x2="28.8952" y2="18.565" gradientUnits="userSpaceOnUse">
<stop stop-color="white" stop-opacity="0.2"/>
<stop offset="1" stop-color="white" stop-opacity="0"/>
</linearGradient>
<linearGradient id="paint2_linear_3126_32780" x1="21.9458" y1="24.2846" x2="24.9367" y2="27.2755" gradientUnits="userSpaceOnUse">
<stop stop-opacity="0.1"/>
<stop offset="1" stop-opacity="0"/>
</linearGradient>
<linearGradient id="paint3_linear_3126_32780" x1="28.4556" y1="18.1889" x2="32.0759" y2="21.8091" gradientUnits="userSpaceOnUse">
<stop stop-opacity="0.05"/>
<stop offset="1" stop-opacity="0"/>
</linearGradient>
<linearGradient id="paint4_linear_3126_32780" x1="13.9977" y1="18.2065" x2="30.8319" y2="26.0564" gradientUnits="userSpaceOnUse">
<stop stop-color="white" stop-opacity="0.2"/>
<stop offset="1" stop-color="white" stop-opacity="0"/>
</linearGradient>
<clipPath id="clip0_3126_32780">
<rect width="18" height="18" fill="white" transform="translate(16.332 11)"/>
</clipPath>
</defs>
</svg>
