<svg width="126" height="31" viewBox="0 0 126 31" fill="none" xmlns="http://www.w3.org/2000/svg">
<path d="M35.7891 17.4075V14.6773L41.1753 7.29248H44.9434V14.541H46.294V17.4075H44.9434V19.4311H41.4718V17.4075H35.7891ZM41.7361 11.0174L39.3154 14.541H41.7361V11.0174Z" fill="#00A859"/>
<path d="M57.3042 7.5481V10.176H54.0099V19.4326H50.5706V10.176H47.3086V7.5481H57.3042Z" fill="#00A859"/>
<path d="M62.022 11.6454C62.4064 11.1062 62.8738 10.68 63.4242 10.3655C63.9738 10.0494 64.5652 9.89136 65.197 9.89136V13.4149H64.23C63.4822 13.4149 62.9262 13.5559 62.5636 13.8363C62.2025 14.1176 62.022 14.6064 62.022 15.3022V19.4331H58.5859V9.97503H62.022V11.6454Z" fill="#00A859"/>
<path d="M65.8613 14.6934C65.8613 13.7165 66.0451 12.8635 66.4125 12.1337C66.78 11.4023 67.2812 10.8407 67.9178 10.4479C68.556 10.0535 69.2668 9.85596 70.0517 9.85596C70.7286 9.85596 71.312 9.98534 71.802 10.2433C72.2935 10.5021 72.6739 10.85 72.943 11.2877V9.97372H76.3823V19.4318H72.943V18.1178C72.6739 18.5563 72.2919 18.9042 71.7955 19.1622C71.2991 19.4209 70.7173 19.5495 70.0517 19.5495C69.2668 19.5495 68.556 19.3535 67.9178 18.9607C67.2812 18.5664 66.78 18.0016 66.4125 17.2656C66.0451 16.5304 65.8613 15.6727 65.8613 14.6934ZM72.943 14.6934C72.943 14.0884 72.7698 13.6111 72.4241 13.2617C72.08 12.9131 71.6569 12.738 71.1541 12.738C70.6399 12.738 70.2137 12.91 69.8744 13.2524C69.5368 13.5956 69.3683 14.076 69.3683 14.6934C69.3683 15.3008 69.5368 15.7827 69.8744 16.1376C70.2137 16.4908 70.6399 16.6675 71.1541 16.6675C71.6569 16.6675 72.08 16.4939 72.4241 16.1469C72.7698 15.7982 72.943 15.3132 72.943 14.6934Z" fill="#00A859"/>
<path d="M77.7852 14.6934C77.7852 13.7165 77.9689 12.8635 78.3363 12.1337C78.7038 11.4023 79.2083 10.8407 79.8513 10.4479C80.496 10.0535 81.2092 9.85595 81.9916 9.85595C82.6234 9.85595 83.1875 9.98301 83.6839 10.2371C84.1803 10.4897 84.5687 10.8345 84.8507 11.2722V6.95532H88.3062V19.4318H84.8507V18.1178C84.5816 18.5563 84.2012 18.9042 83.7097 19.1622C83.2197 19.4209 82.6411 19.5495 81.9755 19.5495C81.1906 19.5495 80.4799 19.3535 79.8417 18.9607C79.205 18.5664 78.7038 18.0016 78.3363 17.2656C77.9689 16.5304 77.7852 15.6727 77.7852 14.6934ZM84.8669 14.6934C84.8669 14.0884 84.6936 13.6111 84.3479 13.2617C84.0038 12.9131 83.5807 12.738 83.0779 12.738C82.5638 12.738 82.1375 12.91 81.7982 13.2524C81.4606 13.5956 81.2922 14.076 81.2922 14.6934C81.2922 15.3008 81.4606 15.7827 81.7982 16.1376C82.1375 16.4908 82.5638 16.6675 83.0779 16.6675C83.5807 16.6675 84.0038 16.4939 84.3479 16.1469C84.6936 15.7982 84.8669 15.3132 84.8669 14.6934Z" fill="#00A859"/>
<path d="M99.6659 14.594C99.6659 14.8528 99.6482 15.1108 99.6143 15.3688H93.1096C93.1435 15.8855 93.2917 16.2706 93.5544 16.5247C93.8188 16.7773 94.1548 16.9028 94.5633 16.9028C95.1371 16.9028 95.5465 16.6564 95.7914 16.1621H99.4564C99.3033 16.8129 99.0083 17.3947 98.57 17.9068C98.1316 18.4174 97.5788 18.8195 96.9132 19.1123C96.2467 19.4036 95.511 19.5493 94.7052 19.5493C93.7333 19.5493 92.8711 19.3533 92.1168 18.9605C91.3642 18.5661 90.7743 18.0044 90.3472 17.2746C89.9217 16.5433 89.709 15.6833 89.709 14.6932C89.709 13.7062 89.9185 12.8493 90.3375 12.1242C90.7582 11.399 91.3464 10.8404 92.1007 10.4476C92.855 10.0533 93.7229 9.85571 94.7052 9.85571C95.6738 9.85571 96.5328 10.0471 97.2806 10.429C98.0301 10.8117 98.6151 11.3603 99.0341 12.0746C99.4548 12.7873 99.6659 13.6272 99.6659 14.594ZM96.1589 13.7666C96.1589 13.3622 96.0179 13.0445 95.7366 12.8152C95.457 12.5844 95.1081 12.4681 94.6891 12.4681C94.2676 12.4681 93.9219 12.5782 93.6511 12.7966C93.382 13.0159 93.2071 13.339 93.1257 13.7666H96.1589Z" fill="#00A859"/>
<path d="M104.506 11.6454C104.891 11.1062 105.358 10.68 105.909 10.3655C106.458 10.0494 107.05 9.89136 107.681 9.89136V13.4149H106.714C105.967 13.4149 105.411 13.5559 105.048 13.8363C104.687 14.1176 104.506 14.6064 104.506 15.3022V19.4331H101.07V9.97503H104.506V11.6454Z" fill="#00A859"/>
<path d="M115.046 19.4314L113.273 17.0545L111.871 19.4314H108.1L111.381 14.5258L107.961 9.97339H111.819L113.589 12.3503L115.01 9.97339H118.778L115.429 14.7954L118.901 19.4314H115.046Z" fill="#00A859"/>
<path d="M36.5244 25.8233C36.2577 25.8233 36.0192 25.7823 35.8088 25.6994C35.6001 25.6173 35.4325 25.4948 35.306 25.3337C35.1811 25.171 35.1158 24.9758 35.1094 24.748H36.0474C36.0619 24.8766 36.1086 24.9742 36.186 25.0424C36.2649 25.1106 36.3697 25.1447 36.4986 25.1447C36.6276 25.1447 36.7291 25.116 36.8049 25.0579C36.8822 25.0006 36.9209 24.92 36.9209 24.8162C36.9209 24.7317 36.8903 24.6612 36.8306 24.6054C36.7702 24.5481 36.6961 24.5016 36.6082 24.466C36.5196 24.4288 36.3955 24.3877 36.2343 24.342C35.9998 24.2723 35.8088 24.2026 35.6606 24.1344C35.5139 24.0647 35.3874 23.9624 35.2802 23.8276C35.1722 23.6912 35.119 23.5138 35.119 23.2946C35.119 22.9707 35.2415 22.7174 35.4865 22.5353C35.7315 22.3517 36.049 22.2595 36.4406 22.2595C36.8403 22.2595 37.161 22.3517 37.4044 22.5353C37.6494 22.7174 37.7799 22.9723 37.7976 23.3008H36.8435C36.8371 23.1877 36.7936 23.0986 36.7146 23.0343C36.6348 22.9707 36.5325 22.9382 36.4084 22.9382C36.3028 22.9382 36.2166 22.9661 36.1505 23.0219C36.086 23.0761 36.0538 23.1536 36.0538 23.2543C36.0538 23.3682 36.1086 23.4573 36.2182 23.5208C36.3278 23.5828 36.4994 23.6502 36.7339 23.7222C36.9676 23.7989 37.1578 23.8725 37.3045 23.9423C37.4503 24.0104 37.576 24.1112 37.6816 24.2429C37.7888 24.3753 37.8428 24.5458 37.8428 24.7542C37.8428 24.9525 37.7896 25.1323 37.6848 25.2934C37.5817 25.4546 37.4302 25.5839 37.2303 25.6808C37.0305 25.7761 36.7952 25.8233 36.5244 25.8233Z" fill="#00A859"/>
<path d="M125.059 25.7941C124.869 25.7941 124.698 25.7648 124.548 25.7056C124.399 25.6469 124.28 25.5595 124.189 25.4445C124.1 25.3283 124.053 25.1889 124.049 25.0263H124.719C124.729 25.1181 124.762 25.1878 124.818 25.2365C124.874 25.2852 124.949 25.3095 125.041 25.3095C125.133 25.3095 125.205 25.289 125.259 25.2476C125.315 25.2066 125.342 25.1491 125.342 25.075C125.342 25.0147 125.32 24.9643 125.278 24.9245C125.235 24.8836 125.182 24.8504 125.119 24.8249C125.056 24.7984 124.967 24.7691 124.852 24.7364C124.685 24.6866 124.548 24.6369 124.442 24.5882C124.338 24.5384 124.247 24.4654 124.171 24.3691C124.094 24.2718 124.056 24.1451 124.056 23.9885C124.056 23.7573 124.143 23.5764 124.318 23.4464C124.493 23.3153 124.72 23.2495 124.999 23.2495C125.285 23.2495 125.514 23.3153 125.687 23.4464C125.862 23.5764 125.956 23.7584 125.968 23.993H125.287C125.282 23.9122 125.251 23.8486 125.195 23.8027C125.138 23.7573 125.065 23.7341 124.976 23.7341C124.901 23.7341 124.839 23.754 124.792 23.7938C124.746 23.8326 124.723 23.8879 124.723 23.9598C124.723 24.0411 124.762 24.1047 124.841 24.1501C124.919 24.1943 125.041 24.2425 125.209 24.2939C125.376 24.3487 125.511 24.4012 125.616 24.451C125.72 24.4997 125.81 24.5716 125.885 24.6656C125.962 24.7602 126 24.8819 126 25.0307C126 25.1723 125.963 25.3007 125.888 25.4157C125.814 25.5308 125.706 25.6232 125.563 25.6923C125.421 25.7603 125.253 25.7941 125.059 25.7941Z" fill="#00A859"/>
<path d="M38.9863 22.7332C38.8316 22.7332 38.7043 22.6898 38.606 22.6031C38.5093 22.5163 38.4609 22.4078 38.4609 22.2777C38.4609 22.146 38.5093 22.0359 38.606 21.9492C38.7043 21.8609 38.8316 21.8159 38.9863 21.8159C39.1362 21.8159 39.2603 21.8609 39.357 21.9492C39.4553 22.0359 39.5053 22.146 39.5053 22.2777C39.5053 22.4078 39.4553 22.5163 39.357 22.6031C39.2603 22.6898 39.1362 22.7332 38.9863 22.7332ZM39.4247 23.0214V25.7888H38.5415V23.0214H39.4247Z" fill="#00A859"/>
<path d="M43.8862 22.9939C44.2448 22.9939 44.5293 23.0985 44.7404 23.3069C44.9532 23.5137 45.0595 23.802 45.0595 24.1715V25.7892H44.1828V24.2862C44.1828 24.1087 44.1328 23.9716 44.0345 23.874C43.9354 23.7748 43.8 23.7253 43.6284 23.7253C43.4559 23.7253 43.3205 23.7748 43.2222 23.874C43.1255 23.9716 43.0772 24.1087 43.0772 24.2862V25.7892H42.2004V24.2862C42.2004 24.1087 42.1505 23.9716 42.0522 23.874C41.9555 23.7748 41.8209 23.7253 41.6492 23.7253C41.4768 23.7253 41.3414 23.7748 41.2431 23.874C41.1464 23.9716 41.098 24.1087 41.098 24.2862V25.7892H40.2148V23.0218H41.098V23.3689C41.1859 23.2534 41.3019 23.1628 41.4462 23.0962C41.592 23.028 41.7564 22.9939 41.9393 22.9939C42.1537 22.9939 42.3463 23.0388 42.5163 23.1272C42.688 23.2162 42.8225 23.3433 42.9192 23.5083C43.0175 23.3557 43.1529 23.2317 43.3254 23.1364C43.497 23.0419 43.684 22.9939 43.8862 22.9939Z" fill="#00A859"/>
<path d="M46.7133 23.4151C46.7987 23.2849 46.9172 23.1811 47.0678 23.1021C47.2201 23.0215 47.3974 22.9812 47.5997 22.9812C47.8358 22.9812 48.051 23.0393 48.2444 23.1547C48.4378 23.271 48.5901 23.436 48.7021 23.6506C48.8133 23.866 48.8697 24.1154 48.8697 24.4005C48.8697 24.6856 48.8133 24.9366 48.7021 25.1536C48.5901 25.369 48.4378 25.5347 48.2444 25.6525C48.051 25.7703 47.8358 25.8292 47.5997 25.8292C47.3998 25.8292 47.2234 25.7896 47.0711 25.7114C46.918 25.6308 46.7987 25.5278 46.7133 25.4015V27.109H45.8301V23.0215H46.7133V23.4151ZM47.9704 24.4005C47.9704 24.1898 47.9091 24.0248 47.7867 23.9047C47.6658 23.7831 47.5159 23.7219 47.3354 23.7219C47.1613 23.7219 47.013 23.7831 46.8906 23.9047C46.7681 24.0271 46.7068 24.1944 46.7068 24.4067C46.7068 24.6175 46.7681 24.784 46.8906 24.9057C47.013 25.0281 47.1613 25.0885 47.3354 25.0885C47.5111 25.0885 47.6609 25.0265 47.7834 24.9026C47.9075 24.7786 47.9704 24.6113 47.9704 24.4005Z" fill="#00A859"/>
<path d="M50.3715 22.1213V25.7905H49.4883V22.1213H50.3715Z" fill="#00A859"/>
<path d="M51.6074 22.7332C51.4527 22.7332 51.3254 22.6898 51.2271 22.6031C51.1304 22.5163 51.082 22.4078 51.082 22.2777C51.082 22.146 51.1304 22.0359 51.2271 21.9492C51.3254 21.8609 51.4527 21.8159 51.6074 21.8159C51.7573 21.8159 51.8814 21.8609 51.9781 21.9492C52.0764 22.0359 52.1264 22.146 52.1264 22.2777C52.1264 22.4078 52.0764 22.5163 51.9781 22.6031C51.8814 22.6898 51.7573 22.7332 51.6074 22.7332ZM52.0458 23.0214V25.7888H51.1626V23.0214H52.0458Z" fill="#00A859"/>
<path d="M54.2836 23.7245H53.8097V25.7884H52.9265V23.7245H52.6074V23.0211H52.9265V22.9436C52.9265 22.6027 53.0273 22.3447 53.2295 22.1689C53.4334 21.9914 53.7324 21.9023 54.1256 21.9023C54.1901 21.9023 54.2368 21.9039 54.2674 21.9054V22.6244C54.0998 22.6143 53.9814 22.6383 53.9129 22.6957C53.8436 22.7515 53.8097 22.8522 53.8097 22.9963V23.0211H54.2836V23.7245Z" fill="#00A859"/>
<path d="M96.4535 23.6884H95.9797V25.7523H95.0965V23.6884H94.7773V22.9849H95.0965V22.9075C95.0965 22.5666 95.1972 22.3086 95.3995 22.1327C95.6033 21.9553 95.9023 21.8662 96.2955 21.8662C96.36 21.8662 96.4067 21.8678 96.4374 21.8693V22.5883C96.2698 22.5782 96.1513 22.6022 96.0828 22.6595C96.0135 22.7153 95.9797 22.816 95.9797 22.9601V22.9849H96.4535V23.6884Z" fill="#00A859"/>
<path d="M57.7906 23.0212L55.9856 27.1026H55.0379L55.6987 25.6956L54.5254 23.0212H55.5117L56.1757 24.7536L56.8365 23.0212H57.7906Z" fill="#00A859"/>
<path d="M58.709 22.7332C58.5543 22.7332 58.427 22.6898 58.3286 22.6031C58.2319 22.5163 58.1836 22.4078 58.1836 22.2777C58.1836 22.146 58.2319 22.0359 58.3286 21.9492C58.427 21.8609 58.5543 21.8159 58.709 21.8159C58.8589 21.8159 58.983 21.8609 59.0797 21.9492C59.178 22.0359 59.228 22.146 59.228 22.2777C59.228 22.4078 59.178 22.5163 59.0797 22.6031C58.983 22.6898 58.8589 22.7332 58.709 22.7332ZM59.1474 23.0214V25.7888H58.2642V23.0214H59.1474Z" fill="#00A859"/>
<path d="M61.6949 22.9934C62.0317 22.9934 62.3009 23.0988 62.5007 23.3095C62.7022 23.5187 62.8037 23.8053 62.8037 24.171V25.7887H61.927V24.2857C61.927 24.1021 61.8762 23.9587 61.7755 23.8549C61.6764 23.7519 61.5434 23.7 61.3758 23.7C61.2082 23.7 61.0736 23.7519 60.9729 23.8549C60.8738 23.9587 60.8246 24.1021 60.8246 24.2857V25.7887H59.9414V23.0213H60.8246V23.3901C60.9124 23.2661 61.0317 23.1693 61.1824 23.0988C61.3347 23.029 61.5055 22.9934 61.6949 22.9934Z" fill="#00A859"/>
<path d="M64.6633 22.9812C64.8671 22.9812 65.0452 23.0215 65.1983 23.1021C65.3506 23.1811 65.4691 23.2849 65.5529 23.4151V23.0215H66.4329V25.7827C66.4329 26.0383 66.3797 26.27 66.2749 26.4768C66.1718 26.6829 66.0122 26.8472 65.7979 26.9696C65.5827 27.0912 65.3152 27.1524 64.9953 27.1524C64.5674 27.1524 64.2217 27.0548 63.9573 26.8611C63.693 26.669 63.5415 26.4071 63.5029 26.0771H64.3764C64.4038 26.1824 64.4699 26.2646 64.573 26.325C64.6762 26.387 64.8027 26.418 64.9534 26.418C65.1355 26.418 65.2805 26.3668 65.3885 26.2661C65.4981 26.1669 65.5529 26.0058 65.5529 25.7827V25.3922C65.4667 25.5208 65.3474 25.6262 65.1951 25.7083C65.0444 25.7889 64.8671 25.8292 64.6633 25.8292C64.4263 25.8292 64.212 25.7703 64.0186 25.6525C63.8268 25.5347 63.6753 25.369 63.5641 25.1536C63.4521 24.9366 63.3965 24.6856 63.3965 24.4005C63.3965 24.1154 63.4521 23.866 63.5641 23.6506C63.6753 23.436 63.8268 23.271 64.0186 23.1547C64.212 23.0393 64.4263 22.9812 64.6633 22.9812ZM65.5529 24.4067C65.5529 24.1944 65.4917 24.0271 65.3692 23.9047C65.2467 23.7831 65.0968 23.7219 64.9211 23.7219C64.7471 23.7219 64.5988 23.7831 64.4763 23.9047C64.3538 24.0248 64.2926 24.1898 64.2926 24.4005C64.2926 24.6113 64.3538 24.7786 64.4763 24.9026C64.5988 25.0265 64.7471 25.0885 64.9211 25.0885C65.0968 25.0885 65.2467 25.0281 65.3692 24.9057C65.4917 24.784 65.5529 24.6175 65.5529 24.4067Z" fill="#00A859"/>
<path d="M71.2338 23.4278C71.2338 23.6308 71.1854 23.8152 71.0887 23.9825C70.9937 24.1499 70.847 24.2854 70.6471 24.3885C70.4473 24.49 70.1991 24.5403 69.9026 24.5403H69.3578V25.7892H68.4746V22.3091H69.9026C70.1927 22.3091 70.436 22.3579 70.6343 22.4547C70.8341 22.55 70.9832 22.6825 71.0823 22.8514C71.183 23.0187 71.2338 23.2109 71.2338 23.4278ZM69.8381 23.8648C70.0057 23.8648 70.1298 23.8276 70.212 23.7532C70.2958 23.6773 70.3377 23.5688 70.3377 23.4278C70.3377 23.2899 70.2958 23.183 70.212 23.1086C70.1298 23.0327 70.0057 22.994 69.8381 22.994H69.3578V23.8648H69.8381Z" fill="#00A859"/>
<path d="M71.6719 24.4005C71.6719 24.1154 71.7275 23.866 71.8395 23.6506C71.9507 23.436 72.1022 23.271 72.294 23.1547C72.4874 23.0393 72.7017 22.9812 72.9387 22.9812C73.1425 22.9812 73.3206 23.0215 73.4737 23.1021C73.626 23.1811 73.7445 23.2849 73.8283 23.4151V23.0215H74.7083V25.7889H73.8283V25.3984C73.7421 25.527 73.622 25.6308 73.4673 25.7114C73.3142 25.7896 73.1369 25.8292 72.9354 25.8292C72.7009 25.8292 72.4874 25.7703 72.294 25.6525C72.1022 25.5347 71.9507 25.369 71.8395 25.1536C71.7275 24.9366 71.6719 24.6856 71.6719 24.4005ZM73.8283 24.4067C73.8283 24.1944 73.7671 24.0271 73.6446 23.9047C73.5221 23.7831 73.3722 23.7219 73.1965 23.7219C73.0225 23.7219 72.8742 23.7831 72.7517 23.9047C72.6292 24.0248 72.568 24.1898 72.568 24.4005C72.568 24.6113 72.6292 24.7786 72.7517 24.9026C72.8742 25.0265 73.0225 25.0885 73.1965 25.0885C73.3722 25.0885 73.5221 25.0281 73.6446 24.9057C73.7671 24.784 73.8283 24.6175 73.8283 24.4067Z" fill="#00A859"/>
<path d="M78.443 23.0212L76.6379 27.1026H75.6902L76.351 25.6956L75.1777 23.0212H76.1641L76.8281 24.7536L77.4889 23.0212H78.443Z" fill="#00A859"/>
<path d="M82.5874 22.9939C82.946 22.9939 83.2305 23.0985 83.4416 23.3069C83.6543 23.5137 83.7607 23.802 83.7607 24.1715V25.7892H82.884V24.2862C82.884 24.1087 82.834 23.9716 82.7357 23.874C82.6366 23.7748 82.5012 23.7253 82.3295 23.7253C82.1571 23.7253 82.0217 23.7748 81.9234 23.874C81.8267 23.9716 81.7783 24.1087 81.7783 24.2862V25.7892H80.9016V24.2862C80.9016 24.1087 80.8516 23.9716 80.7533 23.874C80.6566 23.7748 80.522 23.7253 80.3504 23.7253C80.178 23.7253 80.0426 23.7748 79.9443 23.874C79.8476 23.9716 79.7992 24.1087 79.7992 24.2862V25.7892H78.916V23.0218H79.7992V23.3689C79.887 23.2534 80.0031 23.1628 80.1473 23.0962C80.2932 23.028 80.4576 22.9939 80.6405 22.9939C80.8549 22.9939 81.0475 23.0388 81.2175 23.1272C81.3891 23.2162 81.5237 23.3433 81.6204 23.5083C81.7187 23.3557 81.8541 23.2317 82.0265 23.1364C82.1982 23.0419 82.3851 22.9939 82.5874 22.9939Z" fill="#00A859"/>
<path d="M87.2455 24.3605C87.2455 24.4411 87.2399 24.524 87.2294 24.6084H85.2342C85.2471 24.7804 85.3035 24.9113 85.405 25.002C85.5082 25.0934 85.6323 25.1383 85.7789 25.1383C85.9997 25.1383 86.1536 25.05 86.2399 24.8718H87.1779C87.1303 25.0539 87.0433 25.2181 86.9168 25.3646C86.7919 25.5094 86.6347 25.6233 86.4462 25.7054C86.2568 25.7883 86.0448 25.8294 85.8112 25.8294C85.5291 25.8294 85.2777 25.7721 85.0569 25.6559C84.8377 25.5404 84.6653 25.3754 84.5412 25.16C84.4187 24.9454 84.3574 24.6944 84.3574 24.407C84.3574 24.118 84.4171 23.8662 84.5379 23.6508C84.6604 23.4362 84.8313 23.2712 85.0504 23.155C85.2712 23.0396 85.5251 22.9814 85.8112 22.9814C86.09 22.9814 86.3374 23.0388 86.5525 23.1519C86.7693 23.2635 86.9393 23.4238 87.0618 23.6322C87.1843 23.8414 87.2455 24.0839 87.2455 24.3605ZM86.343 24.1374C86.343 23.9933 86.2914 23.8786 86.1883 23.7934C86.0851 23.7066 85.9562 23.6632 85.8015 23.6632C85.6532 23.6632 85.5283 23.7051 85.4276 23.7872C85.326 23.8701 85.2632 23.9871 85.2374 24.1374H86.343Z" fill="#00A859"/>
<path d="M89.6168 22.9934C89.9536 22.9934 90.2228 23.0988 90.4226 23.3095C90.6241 23.5187 90.7256 23.8053 90.7256 24.171V25.7887H89.8489V24.2857C89.8489 24.1021 89.7981 23.9587 89.6974 23.8549C89.5982 23.7519 89.4653 23.7 89.2977 23.7C89.1301 23.7 88.9955 23.7519 88.8948 23.8549C88.7956 23.9587 88.7465 24.1021 88.7465 24.2857V25.7887H87.8633V23.0213H88.7465V23.3901C88.8343 23.2661 88.9536 23.1693 89.1043 23.0988C89.2566 23.029 89.4274 22.9934 89.6168 22.9934Z" fill="#00A859"/>
<path d="M122.428 23.2495C122.727 23.2495 122.967 23.3454 123.144 23.5373C123.323 23.7277 123.414 23.9886 123.414 24.3215V25.7941H122.634V24.4259C122.634 24.2587 122.589 24.1283 122.5 24.0338C122.412 23.94 122.293 23.8927 122.144 23.8927C121.995 23.8927 121.876 23.94 121.786 24.0338C121.698 24.1283 121.654 24.2587 121.654 24.4259V25.7941H120.869V23.2749H121.654V23.6106C121.732 23.4978 121.838 23.4096 121.972 23.3454C122.108 23.282 122.26 23.2495 122.428 23.2495Z" fill="#00A859"/>
<path d="M93.0979 25.0717V25.7907H92.6499C92.3292 25.7907 92.0794 25.7155 91.8989 25.5645C91.72 25.4142 91.6313 25.1693 91.6313 24.83V23.7268H91.2832V23.0233H91.6313V22.3508H92.5145V23.0233H93.0915V23.7268H92.5145V24.8393C92.5145 24.9222 92.5347 24.9819 92.5758 25.019C92.6161 25.0547 92.6854 25.0717 92.7821 25.0717H93.0979Z" fill="#00A859"/>
<path d="M98.3942 25.8294C98.1105 25.8294 97.8559 25.7721 97.6302 25.6559C97.4062 25.5404 97.2305 25.3754 97.1016 25.16C96.9727 24.9454 96.9082 24.6944 96.9082 24.407C96.9082 24.1219 96.9727 23.8708 97.1016 23.6539C97.2321 23.437 97.4119 23.2712 97.6399 23.155C97.8671 23.0396 98.1218 22.9814 98.4038 22.9814C98.6851 22.9814 98.9389 23.0396 99.1645 23.155C99.3918 23.2712 99.5715 23.437 99.7028 23.6539C99.8334 23.8708 99.8995 24.1219 99.8995 24.407C99.8995 24.6905 99.8326 24.94 99.6996 25.1569C99.5683 25.3738 99.3878 25.5404 99.1581 25.6559C98.93 25.7721 98.6754 25.8294 98.3942 25.8294ZM98.3942 25.0949C98.5618 25.0949 98.7044 25.0361 98.8229 24.9183C98.9405 24.799 99.0002 24.6285 99.0002 24.407C99.0002 24.1838 98.9421 24.0134 98.8261 23.8956C98.7117 23.7763 98.5715 23.7159 98.4038 23.7159C98.2314 23.7159 98.0888 23.7748 97.9751 23.8925C97.8607 24.0103 97.8043 24.1823 97.8043 24.407C97.8043 24.6285 97.8599 24.799 97.9719 24.9183C98.0831 25.0361 98.2241 25.0949 98.3942 25.0949Z" fill="#00A859"/>
<path d="M106.344 25.1756H104.993L104.777 25.7892H103.855L105.164 22.3091H106.186L107.495 25.7892H106.563L106.344 25.1756ZM106.118 24.5186L105.67 23.245L105.225 24.5186H106.118Z" fill="#00A859"/>
<path d="M109.491 23.7245H109.017V25.7884H108.134V23.7245H107.814V23.0211H108.134V22.9436C108.134 22.6027 108.234 22.3447 108.437 22.1689C108.64 21.9914 108.939 21.9023 109.333 21.9023C109.397 21.9023 109.444 21.9039 109.474 21.9054V22.6244C109.307 22.6143 109.188 22.6383 109.12 22.6957C109.051 22.7515 109.017 22.8522 109.017 22.9963V23.0211H109.491V23.7245Z" fill="#00A859"/>
<path d="M110.94 23.4835C111.043 23.3309 111.172 23.2108 111.327 23.1241C111.481 23.0373 111.653 22.9939 111.842 22.9939V23.8895H111.601C111.379 23.8895 111.214 23.9352 111.104 24.0259C110.995 24.1173 110.94 24.2769 110.94 24.5062V25.7892H110.057V23.0218H110.94V23.4835Z" fill="#00A859"/>
<path d="M101.387 23.5446C101.49 23.3919 101.619 23.2719 101.774 23.1851C101.929 23.0983 102.1 23.0549 102.29 23.0549V23.9505H102.048C101.826 23.9505 101.661 23.9962 101.551 24.0869C101.442 24.1783 101.387 24.3379 101.387 24.5672V25.8502H100.504V23.0828H101.387V23.5446Z" fill="#00A859"/>
<path d="M112.863 22.7332C112.709 22.7332 112.581 22.6898 112.483 22.6031C112.386 22.5163 112.338 22.4078 112.338 22.2777C112.338 22.146 112.386 22.0359 112.483 21.9492C112.581 21.8609 112.709 21.8159 112.863 21.8159C113.013 21.8159 113.137 21.8609 113.234 21.9492C113.332 22.0359 113.382 22.146 113.382 22.2777C113.382 22.4078 113.332 22.5163 113.234 22.6031C113.137 22.6898 113.013 22.7332 112.863 22.7332ZM113.302 23.0214V25.7888H112.418V23.0214H113.302Z" fill="#00A859"/>
<path d="M113.922 24.4067C113.922 24.1177 113.982 23.866 114.102 23.6506C114.225 23.436 114.396 23.271 114.615 23.1547C114.834 23.0393 115.084 22.9812 115.366 22.9812C115.727 22.9812 116.028 23.0726 116.268 23.2539C116.511 23.436 116.671 23.6924 116.749 24.0225H115.808C115.73 23.8117 115.577 23.7064 115.35 23.7064C115.189 23.7064 115.06 23.7676 114.963 23.8892C114.866 24.0093 114.818 24.1821 114.818 24.4067C114.818 24.6299 114.866 24.8026 114.963 24.9243C115.06 25.0443 115.189 25.104 115.35 25.104C115.577 25.104 115.73 24.9986 115.808 24.7879H116.749C116.671 25.1125 116.51 25.3674 116.265 25.5533C116.022 25.7377 115.722 25.8292 115.366 25.8292C115.084 25.8292 114.834 25.7718 114.615 25.6556C114.396 25.5402 114.225 25.3752 114.102 25.1598C113.982 24.9452 113.922 24.6942 113.922 24.4067Z" fill="#00A859"/>
<path d="M117.193 24.4005C117.193 24.1154 117.249 23.866 117.361 23.6506C117.472 23.436 117.624 23.271 117.815 23.1547C118.009 23.0393 118.223 22.9812 118.46 22.9812C118.664 22.9812 118.842 23.0215 118.995 23.1021C119.148 23.1811 119.266 23.2849 119.35 23.4151V23.0215H120.23V25.7889H119.35V25.3984C119.264 25.527 119.143 25.6308 118.989 25.7114C118.836 25.7896 118.658 25.8292 118.457 25.8292C118.222 25.8292 118.009 25.7703 117.815 25.6525C117.624 25.5347 117.472 25.369 117.361 25.1536C117.249 24.9366 117.193 24.6856 117.193 24.4005ZM119.35 24.4067C119.35 24.1944 119.289 24.0271 119.166 23.9047C119.044 23.7831 118.894 23.7219 118.718 23.7219C118.544 23.7219 118.396 23.7831 118.273 23.9047C118.151 24.0248 118.089 24.1898 118.089 24.4005C118.089 24.6113 118.151 24.7786 118.273 24.9026C118.396 25.0265 118.544 25.0885 118.718 25.0885C118.894 25.0885 119.044 25.0281 119.166 24.9057C119.289 24.784 119.35 24.6175 119.35 24.4067Z" fill="#00A859"/>
<path fill-rule="evenodd" clip-rule="evenodd" d="M15.5357 0.3479C23.4257 0.3479 29.9425 6.00816 30.9393 13.3388H9.90455V11.7451L2.72292 15.3043L9.90455 18.8635V17.2698H30.9369C29.9336 24.5942 23.4209 30.2467 15.5357 30.2467C10.8716 30.2467 6.68764 28.2688 3.84062 25.1373H17.4988V26.731L24.6804 23.1718L17.4988 19.6126V21.2063H1.26114C0.450463 19.3934 0 17.3961 0 15.2973C0 13.1985 0.449657 11.2005 1.26194 9.38836H17.4988V10.982L24.6804 7.42284L17.4988 3.86368V5.45732H3.84062C6.68845 2.32582 10.8724 0.3479 15.5357 0.3479Z" fill="#00A859"/>
</svg>
