<svg width="107" height="104" viewBox="0 0 107 104" fill="none" xmlns="http://www.w3.org/2000/svg">
<ellipse cx="53.3448" cy="52" rx="53.3448" ry="52" fill="#EC7E3D" fill-opacity="0.1"/>
<path d="M61.0082 46.2247C59.6425 47.4372 56.3277 49.831 51.9101 49.2435C48.762 48.8247 46.6526 47.0997 45.6523 46.106C45.7678 48.506 46.2807 52.4997 48.435 56.8935C49.9225 59.9185 51.7434 62.2247 53.3335 63.8747C54.9236 62.2247 56.7445 59.9185 58.232 56.8935C60.3542 52.5685 60.88 48.6372 61.0082 46.2247ZM47.9342 51.086L48.4741 50.7497C48.7767 51.2122 49.1864 51.6116 49.6583 51.9041C50.329 52.3203 50.9945 52.4478 51.435 52.481L51.385 53.1041C50.8727 53.0653 50.0969 52.9166 49.3147 52.431C48.7639 52.0903 48.2869 51.6247 47.9342 51.086ZM53.3335 61.3747L50.1277 55.7497L52.3807 56.6285C52.9924 56.8666 53.6739 56.8666 54.2856 56.6285L56.5393 55.7497L53.3335 61.3747ZM57.3529 52.4316C56.5701 52.9172 55.7949 53.0653 55.2826 53.1047L55.2326 52.4816C55.6731 52.4478 56.338 52.321 57.0093 51.9047C57.4812 51.6122 57.8909 51.2128 58.1935 50.7503L58.734 51.0866C58.3801 51.6247 57.9031 52.0903 57.3529 52.4316Z" fill="#EC7E3D"/>
<path d="M68.0156 55.6848L69.2909 55.8148C69.348 55.2911 69.3762 54.7567 69.3762 54.2261H68.0938C68.0938 54.7129 68.0676 55.2036 68.0156 55.6848Z" fill="#EC7E3D"/>
<path d="M65.8281 46.713C67.0322 48.5374 67.7651 50.5499 68.0074 52.693L69.2821 52.5561C69.0179 50.2186 68.2184 48.0249 66.9066 46.0361L65.8281 46.713Z" fill="#EC7E3D"/>
<path d="M61.3383 42.374L62.025 41.3184C60.3849 40.3052 58.5877 39.5952 56.6828 39.209L56.4219 40.4327C58.1755 40.7877 59.8297 41.4409 61.3383 42.374Z" fill="#EC7E3D"/>
<path d="M47.7488 41.1761C48.5618 40.8568 49.41 40.6061 50.2711 40.4318L50.0101 39.208C49.0753 39.3974 48.1533 39.6693 47.2705 40.0161C46.3664 40.3711 45.4906 40.8093 44.668 41.3174L45.3547 42.373C46.1112 41.9055 46.9165 41.503 47.7488 41.1761Z" fill="#EC7E3D"/>
<path d="M40.4255 47.4234C40.5647 47.1821 40.7109 46.9452 40.8641 46.7127L39.785 46.0371C39.6183 46.2902 39.4587 46.5484 39.3074 46.8109C38.2777 48.5952 37.6391 50.5284 37.4102 52.5565L38.6848 52.6934C38.8951 50.8334 39.4805 49.0602 40.4255 47.4234Z" fill="#EC7E3D"/>
<path d="M38.677 55.6848C38.625 55.2036 38.5987 54.7129 38.5987 54.2261H37.3164C37.3164 54.7561 37.3446 55.2911 37.401 55.8148L38.677 55.6848Z" fill="#EC7E3D"/>
<path d="M52.0641 40.75H54.6288V37H56.5523L53.3464 33.25L50.1406 37H52.0641V40.75Z" fill="#EC7E3D"/>
<path d="M39.8366 43.0981L42.5571 45.75L44.3703 43.9825L41.6499 41.3306L43.0104 40.005L38.0234 39.5625L38.4767 44.4244L39.8366 43.0981Z" fill="#EC7E3D"/>
<path d="M64.1335 45.75L66.854 43.0981L68.2139 44.4244L68.6672 39.5625L63.6802 40.005L65.0408 41.3306L62.3203 43.9825L64.1335 45.75Z" fill="#EC7E3D"/>
<path d="M57.914 70.7501H63.6024C63.5524 70.2989 63.5011 69.8476 63.4677 69.3951C63.3703 68.0739 65.0174 67.1589 65.9253 66.3845C66.7716 65.6626 67.6186 64.9401 68.465 64.2182C68.5425 64.152 68.6118 64.077 68.6708 63.9945L72.3594 58.8576C72.7492 58.3151 72.6043 57.5657 72.0388 57.1989C71.5291 56.8676 70.8462 56.9595 70.4474 57.4126L69.2587 58.7645L69.3587 57.9051C69.4581 57.3226 68.9971 56.792 68.3912 56.792C67.9411 56.792 67.5487 57.0907 67.4397 57.5164L67.0012 59.2257C66.9896 59.2701 66.9736 59.3126 66.9525 59.3539L65.8285 61.5445L62.9612 62.6251L64.1153 61.1945C64.5147 60.4157 63.9339 59.5001 63.0407 59.5001C62.6509 59.5001 62.2854 59.6845 62.0604 59.9945C62.0604 59.9945 58.9289 63.1939 58.9283 63.1945C57.2247 65.5326 58.0525 68.1045 57.914 70.7501Z" fill="#EC7E3D"/>
<path d="M38.0174 63.9935C38.0764 64.076 38.1456 64.151 38.2232 64.2173C39.0695 64.9391 39.9165 65.6616 40.7628 66.3835C41.6707 67.1579 43.3179 68.0729 43.2204 69.3941C43.1871 69.8473 43.1358 70.2985 43.0858 70.7498H48.7742C48.6357 68.1041 49.4634 65.5323 47.7592 63.1941C47.7586 63.1929 44.6271 59.9941 44.6271 59.9941C44.4021 59.6841 44.0366 59.4998 43.6474 59.4998C42.7543 59.4998 42.174 60.4154 42.5735 61.1941L43.7269 62.6248L40.8584 61.5435L39.7344 59.3529C39.7132 59.3123 39.6972 59.2691 39.6857 59.2248L39.2471 57.5154C39.1381 57.0898 38.7457 56.791 38.2956 56.791C37.6897 56.791 37.2287 57.3216 37.3281 57.9041L37.4281 58.7635L36.2401 57.4123C35.8413 56.9591 35.1584 56.8673 34.6487 57.1985C34.0832 57.566 33.9389 58.3148 34.3281 58.8573L38.0174 63.9935Z" fill="#EC7E3D"/>
</svg>
