<svg width="120" height="40" viewBox="0 0 120 40" fill="none" xmlns="http://www.w3.org/2000/svg">
<rect width="120" height="40" rx="7.08333" fill="#0E0E0E"/>
<path fill-rule="evenodd" clip-rule="evenodd" d="M30.3196 20.6129C30.2956 18.2223 32.2689 17.0757 32.357 17.018C31.2483 15.3964 29.5206 15.1739 28.9055 15.1488C27.4368 14.9993 26.0377 16.0141 25.2922 16.0141C24.5487 16.0141 23.3972 15.1706 22.1791 15.1919C20.5762 15.2159 19.0992 16.1242 18.2744 17.559C16.6101 20.4459 17.8488 24.7248 19.4705 27.0682C20.2634 28.2134 21.2089 29.5023 22.4492 29.4551C23.6449 29.4079 24.0963 28.6816 25.5414 28.6816C26.9865 28.6816 27.3926 29.4551 28.6573 29.4308C29.9428 29.4076 30.7579 28.2635 31.5445 27.1136C32.4545 25.783 32.8294 24.4948 32.8515 24.4293C32.8237 24.4165 30.3454 23.4669 30.3196 20.6129ZM27.9432 13.598C28.601 12.7994 29.0467 11.6895 28.9257 10.5848C27.9762 10.6234 26.8269 11.216 26.1455 12.0139C25.5349 12.7219 25.0008 13.849 25.1439 14.9338C26.2028 15.0158 27.2831 14.3951 27.9432 13.598Z" fill="white"/>
<path d="M42.112 17V9.95H44.672C45.4787 9.95 46.1587 10.09 46.712 10.37C47.272 10.6433 47.6954 11.0433 47.982 11.57C48.2687 12.09 48.412 12.7233 48.412 13.47C48.412 14.21 48.2687 14.8433 47.982 15.37C47.6954 15.8967 47.272 16.3 46.712 16.58C46.1587 16.86 45.4787 17 44.672 17H42.112ZM43.402 15.93H44.592C45.4454 15.93 46.0787 15.7267 46.492 15.32C46.9054 14.9133 47.112 14.2967 47.112 13.47C47.112 12.6367 46.9054 12.02 46.492 11.62C46.0787 11.2133 45.4454 11.01 44.592 11.01H43.402V15.93ZM51.6592 17.1C51.1392 17.1 50.6892 16.9933 50.3092 16.78C49.9292 16.5667 49.6326 16.2633 49.4192 15.87C49.2126 15.4767 49.1092 15.01 49.1092 14.47C49.1092 13.93 49.2126 13.4667 49.4192 13.08C49.6326 12.6867 49.9292 12.3833 50.3092 12.17C50.6892 11.9567 51.1392 11.85 51.6592 11.85C52.1792 11.85 52.6292 11.9567 53.0092 12.17C53.3959 12.3833 53.6926 12.6867 53.8992 13.08C54.1126 13.4667 54.2192 13.93 54.2192 14.47C54.2192 15.01 54.1126 15.4767 53.8992 15.87C53.6926 16.2633 53.3959 16.5667 53.0092 16.78C52.6292 16.9933 52.1792 17.1 51.6592 17.1ZM51.6592 16.14C52.0526 16.14 52.3659 16.0033 52.5992 15.73C52.8326 15.45 52.9492 15.03 52.9492 14.47C52.9492 13.91 52.8326 13.4933 52.5992 13.22C52.3659 12.9467 52.0526 12.81 51.6592 12.81C51.2659 12.81 50.9526 12.9467 50.7192 13.22C50.4859 13.4933 50.3692 13.91 50.3692 14.47C50.3692 15.03 50.4859 15.45 50.7192 15.73C50.9526 16.0033 51.2659 16.14 51.6592 16.14ZM56.3495 17L54.3795 11.95H55.6695L57.0895 15.88H56.8295L58.2695 11.95H59.1595L60.5895 15.88H60.3595L61.7695 11.95H62.9895L61.0195 17H59.9195L58.4095 12.98H58.9395L57.4595 17H56.3495ZM63.5277 17V13.21C63.5277 13.0033 63.521 12.7933 63.5077 12.58C63.4943 12.3667 63.4743 12.1567 63.4477 11.95H64.6577L64.7577 12.95H64.6377C64.7977 12.5967 65.0343 12.3267 65.3477 12.14C65.661 11.9467 66.0243 11.85 66.4377 11.85C67.031 11.85 67.4777 12.0167 67.7777 12.35C68.0777 12.6833 68.2277 13.2033 68.2277 13.91V17H66.9777V13.97C66.9777 13.5633 66.8977 13.2733 66.7377 13.1C66.5843 12.92 66.351 12.83 66.0377 12.83C65.651 12.83 65.3443 12.95 65.1177 13.19C64.891 13.43 64.7777 13.75 64.7777 14.15V17H63.5277ZM69.303 17V9.64H70.553V17H69.303ZM73.9405 17.1C73.4205 17.1 72.9705 16.9933 72.5905 16.78C72.2105 16.5667 71.9138 16.2633 71.7005 15.87C71.4938 15.4767 71.3905 15.01 71.3905 14.47C71.3905 13.93 71.4938 13.4667 71.7005 13.08C71.9138 12.6867 72.2105 12.3833 72.5905 12.17C72.9705 11.9567 73.4205 11.85 73.9405 11.85C74.4605 11.85 74.9105 11.9567 75.2905 12.17C75.6771 12.3833 75.9738 12.6867 76.1805 13.08C76.3938 13.4667 76.5005 13.93 76.5005 14.47C76.5005 15.01 76.3938 15.4767 76.1805 15.87C75.9738 16.2633 75.6771 16.5667 75.2905 16.78C74.9105 16.9933 74.4605 17.1 73.9405 17.1ZM73.9405 16.14C74.3338 16.14 74.6471 16.0033 74.8805 15.73C75.1138 15.45 75.2305 15.03 75.2305 14.47C75.2305 13.91 75.1138 13.4933 74.8805 13.22C74.6471 12.9467 74.3338 12.81 73.9405 12.81C73.5471 12.81 73.2338 12.9467 73.0005 13.22C72.7671 13.4933 72.6505 13.91 72.6505 14.47C72.6505 15.03 72.7671 15.45 73.0005 15.73C73.2338 16.0033 73.5471 16.14 73.9405 16.14ZM79.2784 17.1C78.8384 17.1 78.4518 16.9967 78.1184 16.79C77.7851 16.5767 77.5251 16.2733 77.3384 15.88C77.1518 15.4867 77.0584 15.0167 77.0584 14.47C77.0584 13.9233 77.1518 13.4567 77.3384 13.07C77.5251 12.6767 77.7851 12.3767 78.1184 12.17C78.4518 11.9567 78.8384 11.85 79.2784 11.85C79.7051 11.85 80.0784 11.9567 80.3984 12.17C80.7251 12.3767 80.9418 12.6567 81.0484 13.01H80.9384L81.0484 11.95H82.2484C82.2284 12.1567 82.2084 12.3667 82.1884 12.58C82.1751 12.7933 82.1684 13.0033 82.1684 13.21V17H80.9284L80.9184 15.96H81.0384C80.9318 16.3067 80.7151 16.5833 80.3884 16.79C80.0618 16.9967 79.6918 17.1 79.2784 17.1ZM79.6284 16.14C80.0218 16.14 80.3384 16.0033 80.5784 15.73C80.8184 15.45 80.9384 15.03 80.9384 14.47C80.9384 13.91 80.8184 13.4933 80.5784 13.22C80.3384 12.9467 80.0218 12.81 79.6284 12.81C79.2351 12.81 78.9184 12.9467 78.6784 13.22C78.4384 13.4933 78.3184 13.91 78.3184 14.47C78.3184 15.03 78.4351 15.45 78.6684 15.73C78.9084 16.0033 79.2284 16.14 79.6284 16.14ZM85.2396 17.1C84.7996 17.1 84.4096 16.9967 84.0696 16.79C83.7363 16.5767 83.4763 16.2733 83.2896 15.88C83.1029 15.4867 83.0096 15.0167 83.0096 14.47C83.0096 13.9233 83.1029 13.4567 83.2896 13.07C83.4763 12.6767 83.7363 12.3767 84.0696 12.17C84.4096 11.9567 84.7996 11.85 85.2396 11.85C85.6596 11.85 86.0296 11.9533 86.3496 12.16C86.6763 12.36 86.8929 12.6333 86.9996 12.98H86.8696V9.64H88.1196V17H86.8896V15.93H87.0096C86.9029 16.29 86.6863 16.5767 86.3596 16.79C86.0396 16.9967 85.6663 17.1 85.2396 17.1ZM85.5896 16.14C85.9829 16.14 86.2996 16.0033 86.5396 15.73C86.7796 15.45 86.8996 15.03 86.8996 14.47C86.8996 13.91 86.7796 13.4933 86.5396 13.22C86.2996 12.9467 85.9829 12.81 85.5896 12.81C85.1963 12.81 84.8763 12.9467 84.6296 13.22C84.3896 13.4933 84.2696 13.91 84.2696 14.47C84.2696 15.03 84.3896 15.45 84.6296 15.73C84.8763 16.0033 85.1963 16.14 85.5896 16.14ZM94.0049 17.1C93.4849 17.1 93.0349 16.9933 92.6549 16.78C92.2749 16.5667 91.9783 16.2633 91.7649 15.87C91.5583 15.4767 91.4549 15.01 91.4549 14.47C91.4549 13.93 91.5583 13.4667 91.7649 13.08C91.9783 12.6867 92.2749 12.3833 92.6549 12.17C93.0349 11.9567 93.4849 11.85 94.0049 11.85C94.5249 11.85 94.9749 11.9567 95.3549 12.17C95.7416 12.3833 96.0383 12.6867 96.2449 13.08C96.4583 13.4667 96.5649 13.93 96.5649 14.47C96.5649 15.01 96.4583 15.4767 96.2449 15.87C96.0383 16.2633 95.7416 16.5667 95.3549 16.78C94.9749 16.9933 94.5249 17.1 94.0049 17.1ZM94.0049 16.14C94.3983 16.14 94.7116 16.0033 94.9449 15.73C95.1783 15.45 95.2949 15.03 95.2949 14.47C95.2949 13.91 95.1783 13.4933 94.9449 13.22C94.7116 12.9467 94.3983 12.81 94.0049 12.81C93.6116 12.81 93.2983 12.9467 93.0649 13.22C92.8316 13.4933 92.7149 13.91 92.7149 14.47C92.7149 15.03 92.8316 15.45 93.0649 15.73C93.2983 16.0033 93.6116 16.14 94.0049 16.14ZM97.3929 17V13.21C97.3929 13.0033 97.3862 12.7933 97.3729 12.58C97.3596 12.3667 97.3396 12.1567 97.3129 11.95H98.5229L98.6229 12.95H98.5029C98.6629 12.5967 98.8996 12.3267 99.2129 12.14C99.5262 11.9467 99.8896 11.85 100.303 11.85C100.896 11.85 101.343 12.0167 101.643 12.35C101.943 12.6833 102.093 13.2033 102.093 13.91V17H100.843V13.97C100.843 13.5633 100.763 13.2733 100.603 13.1C100.45 12.92 100.216 12.83 99.9029 12.83C99.5162 12.83 99.2096 12.95 98.9829 13.19C98.7562 13.43 98.6429 13.75 98.6429 14.15V17H97.3929ZM41.332 30L44.522 22.95H45.602L48.832 30H47.522L46.662 28.02L47.182 28.37H42.952L43.492 28.02L42.632 30H41.332ZM45.052 24.33L43.642 27.67L43.382 27.36H46.742L46.532 27.67L45.092 24.33H45.052ZM49.262 32.16V26.21C49.262 26.0033 49.2554 25.7933 49.242 25.58C49.2287 25.3667 49.2087 25.1567 49.182 24.95H50.392L50.502 26.01H50.392C50.492 25.6567 50.702 25.3767 51.022 25.17C51.3487 24.9567 51.7254 24.85 52.152 24.85C52.5987 24.85 52.9887 24.9567 53.322 25.17C53.6554 25.3767 53.9154 25.6767 54.102 26.07C54.2887 26.4567 54.382 26.9233 54.382 27.47C54.382 28.0167 54.2887 28.4867 54.102 28.88C53.9154 29.2733 53.6554 29.5767 53.322 29.79C52.9887 29.9967 52.5987 30.1 52.152 30.1C51.732 30.1 51.362 29.9967 51.042 29.79C50.722 29.5833 50.5087 29.3067 50.402 28.96H50.512V32.16H49.262ZM51.802 29.14C52.202 29.14 52.522 29.0033 52.762 28.73C53.002 28.45 53.122 28.03 53.122 27.47C53.122 26.91 53.002 26.4933 52.762 26.22C52.522 25.9467 52.202 25.81 51.802 25.81C51.4087 25.81 51.092 25.9467 50.852 26.22C50.612 26.4933 50.492 26.91 50.492 27.47C50.492 28.03 50.612 28.45 50.852 28.73C51.092 29.0033 51.4087 29.14 51.802 29.14ZM55.2132 32.16V26.21C55.2132 26.0033 55.2065 25.7933 55.1932 25.58C55.1799 25.3667 55.1599 25.1567 55.1332 24.95H56.3432L56.4532 26.01H56.3432C56.4432 25.6567 56.6532 25.3767 56.9732 25.17C57.2999 24.9567 57.6765 24.85 58.1032 24.85C58.5499 24.85 58.9399 24.9567 59.2732 25.17C59.6065 25.3767 59.8665 25.6767 60.0532 26.07C60.2399 26.4567 60.3332 26.9233 60.3332 27.47C60.3332 28.0167 60.2399 28.4867 60.0532 28.88C59.8665 29.2733 59.6065 29.5767 59.2732 29.79C58.9399 29.9967 58.5499 30.1 58.1032 30.1C57.6832 30.1 57.3132 29.9967 56.9932 29.79C56.6732 29.5833 56.4599 29.3067 56.3532 28.96H56.4632V32.16H55.2132ZM57.7532 29.14C58.1532 29.14 58.4732 29.0033 58.7132 28.73C58.9532 28.45 59.0732 28.03 59.0732 27.47C59.0732 26.91 58.9532 26.4933 58.7132 26.22C58.4732 25.9467 58.1532 25.81 57.7532 25.81C57.3599 25.81 57.0432 25.9467 56.8032 26.22C56.5632 26.4933 56.4432 26.91 56.4432 27.47C56.4432 28.03 56.5632 28.45 56.8032 28.73C57.0432 29.0033 57.3599 29.14 57.7532 29.14ZM65.4585 30.1C65.0252 30.1 64.6252 30.05 64.2585 29.95C63.8985 29.8433 63.5952 29.6967 63.3485 29.51L63.6985 28.67C63.9518 28.8433 64.2318 28.9767 64.5385 29.07C64.8452 29.1633 65.1552 29.21 65.4685 29.21C65.8018 29.21 66.0485 29.1533 66.2085 29.04C66.3752 28.9267 66.4585 28.7733 66.4585 28.58C66.4585 28.4267 66.4052 28.3067 66.2985 28.22C66.1985 28.1267 66.0352 28.0567 65.8085 28.01L64.8085 27.82C64.3818 27.7267 64.0552 27.5667 63.8285 27.34C63.6085 27.1133 63.4985 26.8167 63.4985 26.45C63.4985 26.1367 63.5818 25.86 63.7485 25.62C63.9218 25.38 64.1652 25.1933 64.4785 25.06C64.7985 24.92 65.1718 24.85 65.5985 24.85C65.9718 24.85 66.3218 24.9 66.6485 25C66.9818 25.1 67.2618 25.25 67.4885 25.45L67.1285 26.26C66.9218 26.0933 66.6852 25.9633 66.4185 25.87C66.1518 25.7767 65.8918 25.73 65.6385 25.73C65.2918 25.73 65.0385 25.7933 64.8785 25.92C64.7185 26.04 64.6385 26.1967 64.6385 26.39C64.6385 26.5367 64.6852 26.66 64.7785 26.76C64.8785 26.8533 65.0318 26.9233 65.2385 26.97L66.2385 27.16C66.6852 27.2467 67.0218 27.4 67.2485 27.62C67.4818 27.8333 67.5985 28.1267 67.5985 28.5C67.5985 28.8333 67.5085 29.12 67.3285 29.36C67.1485 29.6 66.8985 29.7833 66.5785 29.91C66.2585 30.0367 65.8852 30.1 65.4585 30.1ZM70.5295 30.1C69.9295 30.1 69.4761 29.9433 69.1695 29.63C68.8628 29.3167 68.7095 28.8467 68.7095 28.22V25.89H67.7395V24.95H68.7095V23.66L69.9595 23.34V24.95H71.3095V25.89H69.9595V28.14C69.9595 28.4867 70.0261 28.73 70.1595 28.87C70.2928 29.01 70.4761 29.08 70.7095 29.08C70.8361 29.08 70.9428 29.07 71.0295 29.05C71.1228 29.03 71.2128 29.0033 71.2995 28.97V29.96C71.1861 30.0067 71.0595 30.04 70.9195 30.06C70.7861 30.0867 70.6561 30.1 70.5295 30.1ZM74.1397 30.1C73.6197 30.1 73.1697 29.9933 72.7897 29.78C72.4097 29.5667 72.113 29.2633 71.8997 28.87C71.693 28.4767 71.5897 28.01 71.5897 27.47C71.5897 26.93 71.693 26.4667 71.8997 26.08C72.113 25.6867 72.4097 25.3833 72.7897 25.17C73.1697 24.9567 73.6197 24.85 74.1397 24.85C74.6597 24.85 75.1097 24.9567 75.4897 25.17C75.8764 25.3833 76.173 25.6867 76.3797 26.08C76.593 26.4667 76.6997 26.93 76.6997 27.47C76.6997 28.01 76.593 28.4767 76.3797 28.87C76.173 29.2633 75.8764 29.5667 75.4897 29.78C75.1097 29.9933 74.6597 30.1 74.1397 30.1ZM74.1397 29.14C74.533 29.14 74.8464 29.0033 75.0797 28.73C75.313 28.45 75.4297 28.03 75.4297 27.47C75.4297 26.91 75.313 26.4933 75.0797 26.22C74.8464 25.9467 74.533 25.81 74.1397 25.81C73.7464 25.81 73.433 25.9467 73.1997 26.22C72.9664 26.4933 72.8497 26.91 72.8497 27.47C72.8497 28.03 72.9664 28.45 73.1997 28.73C73.433 29.0033 73.7464 29.14 74.1397 29.14ZM77.5177 30V26.24C77.5177 26.0267 77.511 25.81 77.4977 25.59C77.491 25.37 77.4743 25.1567 77.4477 24.95H78.6577L78.7977 26.33H78.5977C78.6643 25.9967 78.7743 25.72 78.9277 25.5C79.0877 25.28 79.281 25.1167 79.5077 25.01C79.7343 24.9033 79.981 24.85 80.2477 24.85C80.3677 24.85 80.4643 24.8567 80.5377 24.87C80.611 24.8767 80.6843 24.8933 80.7577 24.92L80.7477 26.02C80.621 25.9667 80.511 25.9333 80.4177 25.92C80.331 25.9067 80.221 25.9 80.0877 25.9C79.801 25.9 79.5577 25.96 79.3577 26.08C79.1643 26.2 79.0177 26.3667 78.9177 26.58C78.8243 26.7933 78.7777 27.0367 78.7777 27.31V30H77.5177ZM83.5653 30.1C82.7186 30.1 82.0553 29.8667 81.5753 29.4C81.0953 28.9333 80.8553 28.2933 80.8553 27.48C80.8553 26.9533 80.9586 26.4933 81.1653 26.1C81.372 25.7067 81.6586 25.4 82.0253 25.18C82.3986 24.96 82.832 24.85 83.3253 24.85C83.812 24.85 84.2186 24.9533 84.5453 25.16C84.872 25.3667 85.1186 25.6567 85.2853 26.03C85.4586 26.4033 85.5453 26.84 85.5453 27.34V27.67H81.8653V27.01H84.6553L84.4853 27.15C84.4853 26.6833 84.3853 26.3267 84.1853 26.08C83.992 25.8333 83.7086 25.71 83.3353 25.71C82.922 25.71 82.602 25.8567 82.3753 26.15C82.1553 26.4433 82.0453 26.8533 82.0453 27.38V27.51C82.0453 28.0567 82.1786 28.4667 82.4453 28.74C82.7186 29.0067 83.102 29.14 83.5953 29.14C83.882 29.14 84.1486 29.1033 84.3953 29.03C84.6486 28.95 84.8886 28.8233 85.1153 28.65L85.4853 29.49C85.2453 29.6833 84.9586 29.8333 84.6253 29.94C84.292 30.0467 83.9386 30.1 83.5653 30.1Z" fill="white"/>
</svg>
