<svg width="212" height="160" viewBox="0 0 212 160" fill="none" xmlns="http://www.w3.org/2000/svg">
<ellipse cx="54.6043" cy="156.8" rx="3.21215" ry="3.20001" transform="rotate(-180 54.6043 156.8)" fill="#00A859"/>
<ellipse cx="54.6043" cy="137.6" rx="3.21215" ry="3.20001" transform="rotate(-180 54.6043 137.6)" fill="#00A859"/>
<ellipse cx="54.6043" cy="118.401" rx="3.21215" ry="3.20001" transform="rotate(-180 54.6043 118.401)" fill="#00A859"/>
<ellipse cx="54.6043" cy="99.2001" rx="3.21215" ry="3.20001" transform="rotate(-180 54.6043 99.2001)" fill="#00A859"/>
<ellipse cx="54.6043" cy="79.9995" rx="3.21215" ry="3.20001" transform="rotate(-180 54.6043 79.9995)" fill="#00A859"/>
<ellipse cx="54.6043" cy="60.8" rx="3.21215" ry="3.20001" transform="rotate(-180 54.6043 60.8)" fill="#00A859"/>
<ellipse cx="54.6043" cy="41.6003" rx="3.21215" ry="3.20001" transform="rotate(-180 54.6043 41.6003)" fill="#00A859"/>
<ellipse cx="131.698" cy="41.6003" rx="3.21215" ry="3.20001" transform="rotate(-180 131.698 41.6003)" fill="#00A859"/>
<ellipse cx="131.698" cy="22.3996" rx="3.21215" ry="3.20001" transform="rotate(-180 131.698 22.3996)" fill="#00A859"/>
<ellipse cx="131.698" cy="3.1999" rx="3.21215" ry="3.20001" transform="rotate(-180 131.698 3.1999)" fill="#00A859"/>
<ellipse cx="208.788" cy="22.3996" rx="3.21215" ry="3.20001" transform="rotate(-180 208.788 22.3996)" fill="#00A859"/>
<ellipse cx="208.788" cy="3.1999" rx="3.21215" ry="3.20001" transform="rotate(-180 208.788 3.1999)" fill="#00A859"/>
<ellipse cx="208.788" cy="41.6003" rx="3.21215" ry="3.20001" transform="rotate(-180 208.788 41.6003)" fill="#00A859"/>
<ellipse cx="54.6043" cy="22.3996" rx="3.21215" ry="3.20001" transform="rotate(-180 54.6043 22.3996)" fill="#00A859"/>
<ellipse cx="54.6043" cy="3.1999" rx="3.21215" ry="3.20001" transform="rotate(-180 54.6043 3.1999)" fill="#00A859"/>
<ellipse cx="28.9089" cy="156.8" rx="3.21215" ry="3.20001" transform="rotate(-180 28.9089 156.8)" fill="#00A859"/>
<ellipse cx="28.9089" cy="137.6" rx="3.21215" ry="3.20001" transform="rotate(-180 28.9089 137.6)" fill="#00A859"/>
<ellipse cx="28.9089" cy="118.401" rx="3.21215" ry="3.20001" transform="rotate(-180 28.9089 118.401)" fill="#00A859"/>
<ellipse cx="28.9089" cy="99.2001" rx="3.21215" ry="3.20001" transform="rotate(-180 28.9089 99.2001)" fill="#00A859"/>
<ellipse cx="28.9089" cy="79.9995" rx="3.21215" ry="3.20001" transform="rotate(-180 28.9089 79.9995)" fill="#00A859"/>
<ellipse cx="28.9089" cy="60.8" rx="3.21215" ry="3.20001" transform="rotate(-180 28.9089 60.8)" fill="#00A859"/>
<ellipse cx="28.9089" cy="41.6003" rx="3.21215" ry="3.20001" transform="rotate(-180 28.9089 41.6003)" fill="#00A859"/>
<ellipse cx="105.999" cy="41.6003" rx="3.21215" ry="3.20001" transform="rotate(-180 105.999 41.6003)" fill="#00A859"/>
<ellipse cx="105.999" cy="22.3996" rx="3.21215" ry="3.20001" transform="rotate(-180 105.999 22.3996)" fill="#00A859"/>
<ellipse cx="105.999" cy="3.1999" rx="3.21215" ry="3.20001" transform="rotate(-180 105.999 3.1999)" fill="#00A859"/>
<ellipse cx="183.089" cy="22.3996" rx="3.21215" ry="3.20001" transform="rotate(-180 183.089 22.3996)" fill="#00A859"/>
<ellipse cx="183.089" cy="3.1999" rx="3.21215" ry="3.20001" transform="rotate(-180 183.089 3.1999)" fill="#00A859"/>
<ellipse cx="183.089" cy="41.6003" rx="3.21215" ry="3.20001" transform="rotate(-180 183.089 41.6003)" fill="#00A859"/>
<ellipse cx="28.9089" cy="22.3996" rx="3.21215" ry="3.20001" transform="rotate(-180 28.9089 22.3996)" fill="#00A859"/>
<ellipse cx="28.9089" cy="3.1999" rx="3.21215" ry="3.20001" transform="rotate(-180 28.9089 3.1999)" fill="#00A859"/>
<ellipse cx="3.21363" cy="156.8" rx="3.21215" ry="3.20001" transform="rotate(-180 3.21363 156.8)" fill="#00A859"/>
<ellipse cx="3.21363" cy="137.6" rx="3.21215" ry="3.20001" transform="rotate(-180 3.21363 137.6)" fill="#00A859"/>
<ellipse cx="3.21363" cy="118.401" rx="3.21215" ry="3.20001" transform="rotate(-180 3.21363 118.401)" fill="#00A859"/>
<ellipse cx="3.21363" cy="99.2001" rx="3.21215" ry="3.20001" transform="rotate(-180 3.21363 99.2001)" fill="#00A859"/>
<ellipse cx="3.21363" cy="79.9995" rx="3.21215" ry="3.20001" transform="rotate(-180 3.21363 79.9995)" fill="#00A859"/>
<ellipse cx="3.21363" cy="60.8" rx="3.21215" ry="3.20001" transform="rotate(-180 3.21363 60.8)" fill="#00A859"/>
<ellipse cx="3.21363" cy="41.6003" rx="3.21215" ry="3.20001" transform="rotate(-180 3.21363 41.6003)" fill="#00A859"/>
<ellipse cx="80.3035" cy="41.6003" rx="3.21215" ry="3.20001" transform="rotate(-180 80.3035 41.6003)" fill="#00A859"/>
<ellipse cx="80.3035" cy="22.3996" rx="3.21215" ry="3.20001" transform="rotate(-180 80.3035 22.3996)" fill="#00A859"/>
<ellipse cx="80.3035" cy="3.1999" rx="3.21215" ry="3.20001" transform="rotate(-180 80.3035 3.1999)" fill="#00A859"/>
<ellipse cx="157.393" cy="22.3996" rx="3.21215" ry="3.20001" transform="rotate(-180 157.393 22.3996)" fill="#00A859"/>
<ellipse cx="157.393" cy="3.1999" rx="3.21215" ry="3.20001" transform="rotate(-180 157.393 3.1999)" fill="#00A859"/>
<ellipse cx="157.393" cy="41.6003" rx="3.21215" ry="3.20001" transform="rotate(-180 157.393 41.6003)" fill="#00A859"/>
<ellipse cx="3.21363" cy="22.3996" rx="3.21215" ry="3.20001" transform="rotate(-180 3.21363 22.3996)" fill="#00A859"/>
<ellipse cx="3.21363" cy="3.1999" rx="3.21215" ry="3.20001" transform="rotate(-180 3.21363 3.1999)" fill="#00A859"/>
</svg>
